<?xml version="1.0" encoding="UTF-8"?><svg xmlns="http://www.w3.org/2000/svg" viewBox="0 0 405.35 132.7"><defs><style>.c{fill:#025d97;}.d{fill:#66baea;}</style></defs><g id="a"/><g id="b"><g><path class="c" d="M150.02,59.52h-21.67v57.56h11.22v-25.33c5.67,0,29.33,.44,29.33-16.22s-18.89-16-18.89-16Zm-4.39,28.78c-4.72,0-6.08-1.24-6.08-1.24v-23.36c15.42-3.1,20.97,4.1,20.97,12.6s-10.17,12-14.89,12Z"/><rect class="c" x="179.5" y="59.52" width="11.19" height="57.56"/><path class="c" d="M318.8,59.52h-12.08v57.56h12.08v-50.5c0-2.11,1.71-3.83,3.83-3.83h3.95s13.11-1,13.11,11.22-9.56,13.89-11.33,14.33-5.56,1-4.22,5.11,12.89,23.67,12.89,23.67h11.44l-13.44-21.44s-2.67-3.22,1.22-4.22,14.11-5.56,14.11-17-8.72-13.8-15.22-14.89c-4.38-.74-16.33,0-16.33,0Z"/><polygon class="c" points="202.67 59.52 202.67 117.08 209.35 117.08 209.35 72.08 210.24 72.08 241.35 117.08 251.68 117.08 251.68 59.52 246.57 59.52 246.57 100.3 245.24 100.3 213.8 59.52 202.67 59.52"/><path class="c" d="M300.46,63.97v-4.45h-35.97v57.56h11.19v-25.24c0-1.14,.92-2.06,2.06-2.06h19.16v-3.37h-19.16c-1.14,0-2.06-.92-2.06-2.06v-18.32c0-1.14,.92-2.06,2.06-2.06h22.72Z"/><path class="c" d="M390.52,117.08h14.83l-23.67-59.33h-6l-22.33,59.33h7.56l4.97-13.33h18.7c.58,0,1.09,.36,1.29,.9l4.65,12.44Zm-23.11-17.44l8.28-22.22,7.61,20.36c.34,.9-.33,1.86-1.29,1.86h-14.6Z"/><path class="d" d="M103.52,43.51v-.73c0-5.63-2.65-17.53-12.55-26.44-10.09-9.08-24.8-12.66-43.71-10.65-.25,.03-.44,.24-.45,.49,0,.25,.18,.47,.43,.5,.22,.03,22.1,3.21,32.51,17.8,5.07,7.1,6.65,15.76,4.69,25.76C76.88,89,45.61,128.99,.48,130.43c-.24,0-.44,.19-.48,.43-.04,.24,.11,.47,.34,.55,.21,.07,3.99,1.3,10.62,1.3,2.36,0,5.08-.16,8.12-.57,10.67-1.46,27.53-6.59,47.21-22.74,37.29-30.59,37.24-54.42,37.22-65.88Z"/><path class="c" d="M121.1,.36c-.1-.02-10.27-1.59-25.08,1.92-13.65,3.23-34.18,11.57-54.47,32.89-22.35,23.5-30.92,52.42-21.31,71.97,6.66,13.54,21.17,20.74,41.37,20.74,3.16,0,6.47-.18,9.91-.53,.25-.03,.44-.23,.45-.48,.01-.25-.16-.47-.41-.51-.1-.02-9.71-1.89-19.05-7.64-12.46-7.68-18.55-18.24-18.1-31.4,.59-13.64,5.91-26.79,17.77-43.96C61.75,29.5,73.67,12.25,121.13,1.34c.23-.05,.4-.26,.39-.5,0-.24-.18-.44-.42-.48Z"/></g></g></svg>