<?xml version="1.0" encoding="utf-8"?>
<!-- Generator: Adobe Illustrator 26.2.1, SVG Export Plug-In . SVG Version: 6.00 Build 0)  -->
<svg version="1.1" xmlns="http://www.w3.org/2000/svg" xmlns:xlink="http://www.w3.org/1999/xlink" x="0px" y="0px"
	 viewBox="0 0 490.44 198.67" style="enable-background:new 0 0 490.44 198.67;" xml:space="preserve">
<style type="text/css">
	.st0{fill:#FFFFFF;}
</style>
<g id="Capa_1">
</g>
<g id="Capa_2">
	<path class="st0" d="M186.72,89.81h-21.67v57.56h11.22v-25.33c5.67,0,29.33,0.44,29.33-16.22S186.72,89.81,186.72,89.81z
		 M182.34,118.59c-4.72,0-6.08-1.24-6.08-1.24V93.99c15.42-3.1,20.97,4.1,20.97,12.6S187.06,118.59,182.34,118.59z"/>
	<rect x="216.21" y="89.81" class="st0" width="11.19" height="57.56"/>
	<path class="st0" d="M355.5,89.81h-12.08v57.56h12.08v-50.5c0-2.11,1.71-3.83,3.83-3.83h3.95c0,0,13.11-1,13.11,11.22
		s-9.56,13.89-11.33,14.33s-5.56,1-4.22,5.11c1.33,4.11,12.89,23.67,12.89,23.67h11.44l-13.44-21.44c0,0-2.67-3.22,1.22-4.22
		c3.89-1,14.11-5.56,14.11-17s-8.72-13.8-15.22-14.89C367.45,89.07,355.5,89.81,355.5,89.81z"/>
	<polygon class="st0" points="239.38,89.81 239.38,147.37 246.06,147.37 246.06,102.37 246.95,102.37 278.06,147.37 288.39,147.37 
		288.39,89.81 283.28,89.81 283.28,130.59 281.95,130.59 250.5,89.81 	"/>
	<path class="st0" d="M337.17,94.26v-4.45h-24.78H308h-6.81v57.56h11.19v-25.24c0-1.14,0.92-2.06,2.06-2.06h19.16v-3.37h-19.16
		c-1.14,0-2.06-0.92-2.06-2.06V96.32c0-1.14,0.92-2.06,2.06-2.06H337.17z"/>
	<path class="st0" d="M427.22,147.37h14.83l-23.67-59.33h-6l-22.33,59.33h7.56l4.97-13.33h18.7c0.58,0,1.09,0.36,1.29,0.9
		L427.22,147.37z M404.11,129.92l8.28-22.22l7.61,20.36c0.34,0.9-0.33,1.86-1.29,1.86H404.11z"/>
	<path class="st0" d="M140.23,73.8l0-0.73c0-5.63-2.65-17.53-12.55-26.44c-10.09-9.08-24.8-12.66-43.71-10.65
		c-0.25,0.03-0.44,0.24-0.45,0.49c0,0.25,0.18,0.47,0.43,0.5c0.22,0.03,22.1,3.21,32.51,17.8c5.07,7.1,6.65,15.76,4.69,25.76
		c-7.57,38.76-38.84,78.75-83.97,80.19c-0.24,0.01-0.44,0.19-0.48,0.43c-0.04,0.24,0.11,0.47,0.34,0.55
		c0.21,0.07,3.99,1.3,10.62,1.3c2.36,0,5.08-0.16,8.12-0.57c10.67-1.46,27.53-6.59,47.21-22.74
		C140.29,109.09,140.25,85.26,140.23,73.8z"/>
	<path class="st0" d="M157.8,30.65c-0.1-0.02-10.27-1.59-25.08,1.92c-13.65,3.23-34.18,11.57-54.47,32.89
		c-22.35,23.5-30.92,52.42-21.31,71.97c6.66,13.54,21.17,20.74,41.37,20.74c3.16,0,6.47-0.18,9.91-0.53
		c0.25-0.03,0.44-0.23,0.45-0.48c0.01-0.25-0.16-0.47-0.41-0.51c-0.1-0.02-9.71-1.89-19.05-7.64c-12.46-7.68-18.55-18.24-18.1-31.4
		c0.59-13.64,5.91-26.79,17.77-43.96c9.58-13.86,21.49-31.12,68.96-42.02c0.23-0.05,0.4-0.26,0.39-0.5
		C158.22,30.89,158.04,30.69,157.8,30.65z"/>
</g>
</svg>
